<svg width="199.000000" height="199.000000" viewBox="0 0 199 199" fill="none" xmlns="http://www.w3.org/2000/svg" xmlns:xlink="http://www.w3.org/1999/xlink">
	<desc>
			Created with Pixso.
	</desc>
	<rect width="199.000000" height="199.000000" fill="#EFEFEF"/>
	<g clip-path="url(#clip2_1)">
		<g filter="url(#filter_2_2_dd)">
			<path id="Rong Qi-" d="M63.1133 54.0273L41.835 54.0273L40.1475 61.2783L44.7617 61.2783L38.8291 86.7754L35.2959 86.7754L33.6084 94L49.7715 94L51.4326 86.7754L48.0576 86.7754L50.0879 78.0742L52.6191 78.0742Q54.2275 78.0742 55.3086 78.4434Q56.2779 78.7743 56.8974 79.4338Q56.9688 79.5099 57.0356 79.5903Q57.6816 80.3682 57.9058 81.5942Q58.1299 82.8203 58.0244 84.5078L57.3916 94L69.2568 94L70.9443 86.7754L67.1475 86.7754L66.9893 81.0273Q66.9365 79.4453 66.5674 78.2983Q66.1982 77.1514 65.75 76.6108Q65.3018 76.0703 65.0381 75.833Q65.6709 75.543 67.1738 74.8047Q68.6768 74.0664 70.2324 72.4844Q71.2392 71.4605 71.9037 70.2488Q72.2659 69.5883 72.5264 68.8721Q73.2646 66.8418 73.2646 64.2578Q73.2646 63.591 73.1915 62.9324Q73.0563 61.7158 72.6714 60.5269Q72.3182 59.436 71.7362 58.4853Q71.3404 57.8389 70.8389 57.2573Q69.5996 55.8203 67.6748 54.9238Q65.75 54.0273 63.1133 54.0273ZM51.7227 70.9551L53.9902 61.2783L59.2109 61.2783Q61.7686 61.2783 62.8628 62.3989Q63.0834 62.6249 63.2595 62.8813Q63.957 63.897 63.957 65.3916Q63.957 66.8154 63.4429 67.8701Q63.1813 68.4068 62.807 68.8478Q62.4457 69.2736 61.9795 69.6104Q61.0303 70.2959 59.6987 70.6255Q58.3672 70.9551 56.7324 70.9551L51.7227 70.9551ZM75.1499 75.6616Q73.792 78.7334 73.792 82.5039Q73.792 84.399 74.3278 86.1281Q74.5002 86.6844 74.728 87.2236Q75.3654 88.7319 76.3391 89.9772Q76.7952 90.5607 77.3252 91.0864Q77.6167 91.3757 77.9266 91.6438Q79.382 92.9033 81.2407 93.6968Q81.2508 93.7011 81.2608 93.7053Q83.507 94.6592 86.1582 94.6592Q89.5913 94.6592 92.5639 93.4891Q92.6506 93.455 92.7368 93.4199Q95.1437 92.4405 97.0401 90.8517Q97.5431 90.4302 98.0103 89.9658Q98.4426 89.536 98.8393 89.0754Q100.486 87.1625 101.517 84.7188Q102.796 81.6865 102.796 78.0742Q102.796 75.9388 102.134 74.0332Q102.003 73.6564 101.847 73.2886Q101.153 71.6593 100.078 70.3403Q99.6828 69.8555 99.2363 69.4126Q98.9082 69.087 98.5568 68.7887Q97.1298 67.5771 95.3208 66.8154Q94.968 66.6669 94.6072 66.5416Q92.6621 65.8662 90.4824 65.8662Q88.0453 65.8662 85.7828 66.4947Q84.9366 66.7298 84.1147 67.0527Q82.0747 67.8545 80.3658 69.1077Q79.5456 69.7092 78.8018 70.4146Q78.5326 70.6698 78.2763 70.9373Q76.3485 72.9503 75.1499 75.6616ZM121.596 66.6836L107.727 66.6836L106.039 73.9082L110.785 73.9082L106.145 94L115.399 94L119.275 77.2305Q120.383 76.3867 121.411 75.8594Q123.389 74.8311 124.733 74.8311Q125.455 74.8311 126.013 75.1332Q126.026 75.1402 126.039 75.1475Q126.239 75.2591 126.409 75.4053Q126.722 75.6732 126.935 76.0571Q127.265 76.6504 127.357 77.481Q127.449 78.3115 127.212 79.3135L123.811 94L137.812 94L139.473 86.7754L134.489 86.7754L136.73 77.1514Q137.337 74.541 137.06 72.4712Q136.783 70.4014 135.755 68.9775Q135.489 68.6098 135.178 68.2861Q134.284 67.3562 133.013 66.7891Q131.299 66.0244 129.005 66.0244Q127.799 66.0244 126.65 66.2798Q126.442 66.3259 126.236 66.3804Q126.109 66.414 125.983 66.45Q124.772 66.796 123.626 67.3691Q122.363 68.0004 121.18 68.8941L121.596 66.6836ZM157.561 93.3672Q159.248 92.7607 160.224 91.917L160.039 92.708Q159.617 94.501 158.8 95.6479Q157.982 96.7949 156.901 97.4541Q156.501 97.6983 156.075 97.8846Q155.351 98.2012 154.555 98.3506Q153.289 98.5879 151.944 98.5879Q149.545 98.5879 147.488 97.8364Q145.432 97.085 143.85 95.9512L139.209 102.912Q141.239 104.494 144.311 105.457Q147.383 106.419 151.575 106.419Q154.739 106.419 157.508 105.812Q159.775 105.316 161.68 104.2Q162.101 103.954 162.504 103.677Q164.732 102.147 166.38 99.5239Q168.028 96.9004 168.951 92.8662L175.147 66.0244L166.209 66.0244L165.761 67.9229Q164.021 66.9209 163.124 66.644Q162.228 66.3672 161.212 66.1958Q160.663 66.1031 160.11 66.0605Q159.641 66.0244 159.169 66.0244Q155.633 66.0244 152.571 67.2297Q152.528 67.2466 152.485 67.2637Q149.882 68.305 147.855 70.0259Q147.47 70.353 147.106 70.7046Q146.457 71.3306 145.888 72.0216Q144.454 73.7609 143.52 75.9121Q143.442 76.0917 143.369 76.2731Q142.215 79.129 142.215 82.4512Q142.215 85.2988 143.217 87.4609Q144.219 89.623 145.827 91.0732Q146.596 91.7663 147.464 92.2968Q148.412 92.8763 149.479 93.2617Q151.214 93.8887 152.978 93.9832Q153.292 94 153.605 94Q155.794 94 157.561 93.3672ZM82.7305 83.6509Q82.3877 82.6885 82.3877 81.5283Q82.3877 80.1091 82.829 78.8439Q82.8879 78.6752 82.9546 78.5093Q83.511 77.1246 84.4486 76.0829Q84.4662 76.0634 84.4839 76.0439Q84.8885 75.6006 85.3537 75.2341Q85.995 74.7288 86.7515 74.3696Q87.1397 74.1853 87.5454 74.0558Q88.5037 73.75 89.5596 73.75Q90.3531 73.75 91.0729 73.9803Q91.2142 74.0255 91.3525 74.0796Q91.7347 74.2289 92.0735 74.4457Q92.4829 74.7077 92.8291 75.0684Q93.4619 75.7275 93.8442 76.7163Q94.2266 77.7051 94.2266 79.0498Q94.2266 80.4827 93.7607 81.7434Q93.695 81.921 93.6201 82.0952Q93.0745 83.3644 92.198 84.3348Q92.1003 84.4429 91.9985 84.5474Q91.319 85.2445 90.5155 85.7408Q90.1186 85.986 89.6914 86.1821Q88.7906 86.5958 87.8513 86.721Q87.4434 86.7754 87.0283 86.7754Q86.1576 86.7754 85.3964 86.4867Q85.2817 86.4431 85.1694 86.3931Q84.7181 86.1917 84.3326 85.9026Q83.9862 85.6427 83.6929 85.312Q83.0732 84.6133 82.7305 83.6509ZM162.333 82.7412Q161.858 83.4795 161.278 84.0332Q160.566 84.7451 159.736 85.2065Q158.905 85.668 158.022 85.8921Q157.139 86.1162 156.269 86.1162Q155.24 86.1162 154.344 85.7866Q153.758 85.5712 153.262 85.2263Q152.999 85.0435 152.762 84.8242Q152.076 84.1914 151.681 83.2422Q151.285 82.293 151.285 81.0273Q151.285 79.8381 151.648 78.7726Q151.744 78.4916 151.865 78.2192Q152.362 77.1025 153.138 76.2367Q153.269 76.0906 153.408 75.9517Q153.638 75.7213 153.887 75.5136Q154.679 74.8536 155.662 74.4224Q156.238 74.1696 156.84 74.0295Q157.589 73.8555 158.378 73.8555Q159.354 73.8555 160.224 74.0664Q161.094 74.2773 161.964 74.7388Q162.834 75.2002 163.757 76.624L162.333 82.7412ZM84.7113 106.353Q84.4707 107.075 84.4707 107.877Q84.4707 108.679 84.7113 109.401Q84.7634 109.557 84.8267 109.709Q85.089 110.341 85.5017 110.851Q85.649 111.033 85.8154 111.199Q85.9477 111.331 86.0897 111.452Q86.6273 111.909 87.3052 112.201Q87.3705 112.229 87.4367 112.255Q88.2385 112.57 89.1641 112.57Q89.8088 112.57 90.4049 112.4Q90.6864 112.32 90.957 112.201Q91.5538 111.94 92.0451 111.547Q92.2484 111.384 92.4336 111.199Q92.5658 111.067 92.6866 110.925Q93.1436 110.387 93.4355 109.709Q93.5205 109.512 93.5859 109.309Q93.8047 108.628 93.8047 107.877Q93.8047 107.126 93.5859 106.445Q93.5205 106.242 93.4355 106.044Q93.1436 105.367 92.6866 104.829Q92.5658 104.687 92.4336 104.555Q92.2484 104.369 92.0451 104.207Q91.5538 103.814 90.957 103.553Q90.6864 103.434 90.4049 103.354Q89.8088 103.184 89.1641 103.184Q88.2385 103.184 87.4367 103.499Q87.3705 103.525 87.3052 103.553Q86.6273 103.845 86.0897 104.302Q85.9477 104.422 85.8154 104.555Q85.649 104.721 85.5017 104.903Q85.089 105.413 84.8267 106.044Q84.7634 106.197 84.7113 106.353ZM44.5508 143.604Q46.3438 144.316 48.3213 144.606L46.792 150.961Q47.4512 150.75 47.9258 150.697Q48.4004 150.645 49.0596 150.645Q49.7261 150.645 50.3692 150.767Q50.6929 150.829 51.0107 150.921Q51.4057 151.037 51.7915 151.177Q52.3329 151.374 52.8564 151.62Q53.7529 152.042 54.623 152.53Q55.4932 153.018 56.3896 153.439Q57.2861 153.861 58.209 154.138Q58.2496 154.15 58.2904 154.162Q59.1759 154.415 60.1338 154.415Q60.7901 154.415 61.4387 154.345Q62.6924 154.208 63.9175 153.809Q64.8763 153.496 65.7684 153.05Q66.606 152.631 67.3848 152.095Q67.9341 151.717 68.4388 151.286Q69.4119 150.456 70.2192 149.432Q70.4724 149.11 70.7025 148.773Q71.5869 147.479 72.1309 145.951L66.8838 143.024Q66.5491 143.895 66.0446 144.651Q65.9528 144.789 65.8555 144.923Q65.2227 145.793 64.0361 146.294Q62.8496 146.795 61.3203 146.795Q59.6855 146.769 57.0488 145.187L55.2295 144.475Q56.3105 144.29 57.3916 144Q59.7421 143.387 61.8787 142.338Q62.4984 142.034 63.1001 141.693Q64.0736 141.141 64.9861 140.503Q66.582 139.385 67.9912 138.001Q68.3448 137.654 68.6829 137.292Q70.4628 135.388 71.8145 133.084Q73.4229 130.342 74.3062 127.099Q75.1895 123.855 75.1895 120.19Q75.1895 116.446 74.0293 113.335Q72.9726 110.501 71.0956 108.4Q70.9119 108.194 70.7202 107.996Q70.3866 107.65 70.0314 107.328Q68.0985 105.575 65.5259 104.528Q62.4805 103.289 58.7363 103.289Q57.791 103.289 56.8523 103.367Q54.8059 103.538 52.7905 104.08Q51.6179 104.396 50.4871 104.822Q48.7831 105.465 47.1743 106.361Q46.9243 106.5 46.6778 106.645Q44.285 108.053 42.2173 110.013Q41.7996 110.409 41.4023 110.824Q39.6299 112.677 38.2622 114.917Q36.5879 117.659 35.6387 120.942Q34.6895 124.225 34.6895 127.969Q34.6895 131.739 35.9155 134.837Q37.006 137.593 38.8682 139.65Q39.0998 139.905 39.3433 140.15Q39.8807 140.691 40.466 141.174Q42.2787 142.668 44.5508 143.604ZM53.9209 135.82Q53.0703 135.958 52.1973 135.958Q50.3779 135.958 48.9146 135.312Q48.0267 134.92 47.2942 134.334Q46.8193 133.954 46.4097 133.493Q45.3682 132.319 44.8145 130.698Q44.2607 129.076 44.2607 127.099Q44.2607 125.673 44.5211 124.297Q44.6171 123.789 44.7485 123.289Q45.1843 121.628 45.9357 120.125Q46.0254 119.946 46.1196 119.769Q46.7583 118.567 47.5762 117.504Q47.8894 117.097 48.229 116.71Q49.4284 115.343 50.8801 114.342Q50.9124 114.319 50.9448 114.297Q51.9405 113.619 53.0245 113.141Q53.5624 112.903 54.1221 112.715Q54.8498 112.471 55.5972 112.332Q56.5828 112.148 57.6025 112.148Q59.4482 112.148 60.9116 112.794Q61.8384 113.204 62.5907 113.824Q63.0263 114.184 63.4033 114.614Q64.4316 115.787 64.9854 117.409Q65.5391 119.03 65.5391 121.008Q65.5391 122.179 65.3587 123.321Q65.2385 124.082 65.0381 124.831Q64.5475 126.664 63.6777 128.295Q63.6592 128.33 63.6406 128.364Q62.9234 129.693 61.9953 130.853Q61.7633 131.143 61.5181 131.423Q60.292 132.82 58.8022 133.822Q57.7287 134.544 56.5593 135.04Q56.1059 135.233 55.6382 135.391Q54.7913 135.678 53.9209 135.82ZM92.5127 116.684L78.4854 116.684L76.7979 123.908L81.834 123.908L77.1934 144L91.2207 144L92.9082 136.775L87.8721 136.775L92.5127 116.684ZM98.999 124.937L97.3115 132.161L113.844 132.161L115.531 124.937L98.999 124.937Z" fill="#096FFFFF"/>
		</g>
		<g filter="url(#filter_2_14_dd)"/>
		<g filter="url(#filter_2_11_dd)">
			<path id="容器" d="M137.812 119.789L137.688 120.719L131.477 120.719L136.984 124.977L143.195 124.977L139.258 121.938L143 121.938L143.672 117.07L134.234 117.07L134.484 115.25L126.555 115.25L127.609 116.461L127.516 117.07L118.133 117.07L117.461 121.938L121.18 121.938L116.406 124.977L122.617 124.977L129.305 120.719L123.094 120.719L123.227 119.789L137.812 119.789ZM159.159 122.547L160.089 115.859L147.924 115.859L147.003 122.547L159.159 122.547ZM172.534 122.547L173.464 115.859L161.307 115.859L160.378 122.547L172.534 122.547ZM155.542 120.109L151.292 120.109L151.542 118.289L155.799 118.289L155.542 120.109ZM168.885 120.109L164.667 120.109L164.917 118.289L169.143 118.289L168.885 120.109ZM170.776 124.367L170.01 123.148L164.534 123.148L165.307 124.367L161.339 124.367L163.323 123.148L156.026 123.148L154.01 124.367L146.135 124.367L145.784 126.797L150.042 126.797L146.042 129.234L153.948 129.234L157.948 126.797L160.245 126.797L163.674 129.234L171.573 129.234L168.151 126.797L172.534 126.797L172.885 124.367L170.776 124.367ZM142.484 129.844L134.234 123.758L125.719 123.758L115.734 129.844L123.156 129.844L128.219 126.547L130.484 126.547L135.195 129.844L142.484 129.844ZM157.018 137.742L158.135 129.844L145.979 129.844L144.854 137.742L157.018 137.742ZM170.393 137.742L171.51 129.844L159.354 129.844L158.229 137.742L170.393 137.742ZM139.578 137.742L140.602 130.445L117.492 130.445L116.469 137.742L139.578 137.742ZM153.432 135.312L149.174 135.312L149.589 132.273L153.846 132.273L153.432 135.312ZM166.776 135.312L162.549 135.312L162.971 132.273L167.19 132.273L166.776 135.312ZM133.812 133.203L133.562 135.023L123.258 135.023L123.516 133.203L133.812 133.203Z" fill="#FF7C09FF"/>
		</g>
		<path id="容器" d="M140.602 130.445L139.578 137.742L116.469 137.742L117.492 130.445L140.602 130.445ZM137.688 120.719L137.812 119.789L123.227 119.789L123.094 120.719L129.305 120.719L122.617 124.977L116.406 124.977L121.18 121.938L117.461 121.938L118.133 117.07L127.516 117.07L127.609 116.461L126.555 115.25L134.484 115.25L134.234 117.07L143.672 117.07L143 121.938L139.258 121.938L143.195 124.977L136.984 124.977L131.477 120.719L137.688 120.719ZM134.234 123.758L142.484 129.844L135.195 129.844L130.484 126.547L128.219 126.547L123.156 129.844L115.734 129.844L125.719 123.758L134.234 123.758ZM133.562 135.023L133.812 133.203L123.516 133.203L123.258 135.023L133.562 135.023ZM170.01 123.148L170.776 124.367L172.885 124.367L172.534 126.797L168.151 126.797L171.573 129.234L163.674 129.234L160.245 126.797L157.948 126.797L153.948 129.234L146.042 129.234L150.042 126.797L145.784 126.797L146.135 124.367L154.01 124.367L156.026 123.148L163.323 123.148L161.339 124.367L165.307 124.367L164.534 123.148L170.01 123.148ZM158.135 129.844L157.018 137.742L144.854 137.742L145.979 129.844L158.135 129.844ZM171.51 129.844L170.393 137.742L158.229 137.742L159.354 129.844L171.51 129.844ZM160.089 115.859L159.159 122.547L147.003 122.547L147.924 115.859L160.089 115.859ZM173.464 115.859L172.534 122.547L160.378 122.547L161.307 115.859L173.464 115.859ZM149.174 135.312L153.432 135.312L153.846 132.273L149.589 132.273L149.174 135.312ZM162.549 135.312L166.776 135.312L167.19 132.273L162.971 132.273L162.549 135.312ZM151.292 120.109L155.542 120.109L155.799 118.289L151.542 118.289L151.292 120.109ZM164.667 120.109L168.885 120.109L169.143 118.289L164.917 118.289L164.667 120.109Z" fill="#000000FF"/>
	</g>
	<defs>
		<filter id="filter_2_2_dd" x="24.000000" y="41.384277" width="159.736328" height="132.682617" filterUnits="userSpaceOnUse" color-interpolation-filters="sRGB">
			<feFlood flood-opacity="0" result="BackgroundImageFix"/>
			<feColorMatrix in="SourceAlpha" type="matrix" values="0 0 0 0 0 0 0 0 0 0 0 0 0 0 0 0 0 0 127 0"/>
			<feOffset dx="0" dy="8"/>
			<feGaussianBlur stdDeviation="2.66667"/>
			<feColorMatrix type="matrix" values="0 0 0 0 0 0 0 0 0 0 0 0 0 0 0 0 0 0 0.35 0"/>
			<feBlend mode="normal" in2="BackgroundImageFix" result="effect_dropShadow_1"/>
			<feBlend mode="normal" in="SourceGraphic" in2="effect_dropShadow_1" result="shape"/>
		</filter>
		<filter id="filter_2_14_dd" x="117.000000" y="114.000000" width="69.000000" height="46.000000" filterUnits="userSpaceOnUse" color-interpolation-filters="sRGB">
			<feFlood flood-opacity="0" result="BackgroundImageFix"/>
			<feBlend mode="normal" in="SourceGraphic" in2="BackgroundImageFix" result="shape"/>
			<feGaussianBlur stdDeviation="1.33333" result="effect_layerBlur_1"/>
		</filter>
		<filter id="filter_2_11_dd" x="110.500000" y="105.192307" width="68.440063" height="51.000000" filterUnits="userSpaceOnUse" color-interpolation-filters="sRGB">
			<feFlood flood-opacity="0" result="BackgroundImageFix"/>
			<feColorMatrix in="SourceAlpha" type="matrix" values="0 0 0 0 0 0 0 0 0 0 0 0 0 0 0 0 0 0 127 0"/>
			<feOffset dx="0" dy="4"/>
			<feGaussianBlur stdDeviation="1.33333"/>
			<feColorMatrix type="matrix" values="0 0 0 0 0 0 0 0 0 0 0 0 0 0 0 0 0 0 0.25 0"/>
			<feBlend mode="normal" in2="BackgroundImageFix" result="effect_dropShadow_1"/>
			<feBlend mode="normal" in="SourceGraphic" in2="effect_dropShadow_1" result="shape"/>
		</filter>
		<clipPath id="clip2_1">
			<rect id="自定义" width="199.000000" height="199.000000" fill="white"/>
		</clipPath>
	</defs>
</svg>
