<svg width="200.000015" height="200.000000" viewBox="0 0 200 200" fill="none" xmlns="http://www.w3.org/2000/svg" xmlns:xlink="http://www.w3.org/1999/xlink">
	<desc>
			Created with Pixso.
	</desc>
	<rect width="200.000015" height="200.000000" fill="#EFEFEF"/>
	<path d="M118.8 0L200 0L200 81.2C200 136.602 200 164.302 183.088 181.755C182.65 182.206 182.206 182.65 181.755 183.088C164.302 200 136.602 200 81.2 200L5.72205e-06 200L0 118.8C1.90735e-06 63.3982 3.8147e-06 35.6974 16.9124 18.2452C17.3497 17.794 17.794 17.3497 18.2452 16.9124C35.6974 0 63.3982 0 118.8 0Z" fill-rule="evenodd" fill="#5600C1"/>
	<g clip-path="url(#clip2_1)">
		<path id="器" d="M136.117 137.23L138.209 122.184L110.84 122.184L108.766 137.23L136.117 137.23ZM166.211 137.23L168.303 122.184L140.951 122.184L138.859 137.23L166.211 137.23ZM127.979 131.746L118.416 131.746L118.979 127.65L128.559 127.65L127.979 131.746ZM158.002 131.746L148.51 131.746L149.072 127.65L158.582 127.65L158.002 131.746ZM162.256 141.326L160.533 138.584L148.211 138.584L149.951 141.326L141.021 141.326L145.486 138.584L129.068 138.584L124.533 141.326L106.814 141.326L106.023 146.793L115.604 146.793L106.604 152.277L124.393 152.277L133.393 146.793L138.561 146.793L146.277 152.277L164.049 152.277L156.35 146.793L166.211 146.793L167.002 141.326L162.256 141.326ZM131.301 171.42L133.814 153.648L106.463 153.648L103.932 171.42L131.301 171.42ZM161.395 171.42L163.908 153.648L136.557 153.648L134.025 171.42L161.395 171.42ZM123.232 165.953L113.652 165.953L114.584 159.115L124.164 159.115L123.232 165.953ZM153.256 165.953L143.746 165.953L144.695 159.115L154.188 159.115L153.256 165.953Z" fill="#FFFFFFFF"/>
		<path id="容" d="M95.3281 42.0254L95.0469 44.1172L81.0723 44.1172L93.4649 53.6973L107.439 53.6973L98.5801 46.8594L107 46.8594L108.512 35.9082L87.2774 35.9082L87.8399 31.8125L69.9981 31.8125L72.3711 34.5371L72.1602 35.9082L51.0488 35.9082L49.5371 46.8594L57.9043 46.8594L47.1641 53.6973L61.1387 53.6973L76.1856 44.1172L62.2109 44.1172L62.5098 42.0254L95.3281 42.0254ZM105.84 64.6484L87.2774 50.9551L68.1172 50.9551L45.6524 64.6484L62.3516 64.6484L73.7422 57.2305L78.8399 57.2305L89.4395 64.6484L105.84 64.6484ZM99.3008 82.4199L101.604 66.002L49.6074 66.002L47.3047 82.4199L99.3008 82.4199ZM86.3281 72.207L85.7656 76.3027L62.5801 76.3027L63.1602 72.207L86.3281 72.207Z" fill="#FFFFFFFF"/>
	</g>
	<path id="直线 1" d="M189 11L13 188" stroke="#FCF804" stroke-width="4.000000" stroke-linecap="round"/>
	<defs>
		<clipPath id="clip2_1">
			<rect id="自定义" rx="60.000000" width="200.000000" height="200.000000" transform="translate(0.000006 0.000000)" fill="white"/>
		</clipPath>
	</defs>
</svg>
